STARTFONT 2.1
FONT -Bitstream-Charter-Medium-I-Normal--17-120-100-100-P-92-ISO8859-15
SIZE 12 100 100
FONTBOUNDINGBOX 18 20 -2 -4

STARTPROPERTIES 25
FONTNAME_REGISTRY ""
FAMILY_NAME "Charter"
FOUNDRY "Bitstream"
WEIGHT_NAME "Medium"
SETWIDTH_NAME "Normal"
SLANT "I"
ADD_STYLE_NAME ""
PIXEL_SIZE 17
POINT_SIZE 120
RESOLUTION_X 100
RESOLUTION_Y 100
SPACING "P"
AVERAGE_WIDTH 92
CHARSET_REGISTRY "ISO8859"
CHARSET_ENCODING "15"
CAP_HEIGHT 11
X_HEIGHT 8
CHARSET_COLLECTIONS "ASCII ISOLATIN1"
FACE_NAME "Bitstream Charter Italic"
COPYRIGHT "Copyright 1987 by Bitstream Inc. Charter Registered trademark of Bitstream Inc."
WEIGHT 10
QUAD_WIDTH 10
DEFAULT_CHAR 0
FONT_DESCENT 4
FONT_ASCENT 16
ENDPROPERTIES

CHARS 191

STARTCHAR space
ENCODING 32
SWIDTH 278 0
DWIDTH 5 0
BBX 1 1 0 0
BITMAP
00
ENDCHAR

STARTCHAR exclam
ENCODING 33
SWIDTH 338 0
DWIDTH 6 0
BBX 4 11 1 0
BITMAP
30
30
30
20
60
60
40
40
00
C0
C0
ENDCHAR

STARTCHAR quotedbl
ENCODING 34
SWIDTH 331 0
DWIDTH 7 0
BBX 5 5 1 7
BITMAP
D8
D8
D8
48
48
ENDCHAR

STARTCHAR numbersign
ENCODING 35
SWIDTH 745 0
DWIDTH 12 0
BBX 10 12 1 0
BITMAP
0480
0880
0900
0900
7FC0
1200
1200
FF80
2400
2400
4400
4800
ENDCHAR

STARTCHAR dollar
ENCODING 36
SWIDTH 556 0
DWIDTH 9 0
BBX 8 15 0 -2
BITMAP
04
04
1F
35
29
68
38
1C
0E
12
92
94
78
10
20
ENDCHAR

STARTCHAR percent
ENCODING 37
SWIDTH 852 0
DWIDTH 14 0
BBX 12 11 1 0
BITMAP
3020
4840
8880
8900
9A60
9690
6490
0910
1110
2120
40C0
ENDCHAR

STARTCHAR ampersand
ENCODING 38
SWIDTH 704 0
DWIDTH 12 0
BBX 11 11 0 0
BITMAP
0E00
1300
2100
2200
3C00
39E0
4C80
C480
C300
C700
79C0
ENDCHAR

STARTCHAR quoteright
ENCODING 39
SWIDTH 201 0
DWIDTH 4 0
BBX 3 5 1 7
BITMAP
60
60
20
40
C0
ENDCHAR

STARTCHAR parenleft
ENCODING 40
SWIDTH 419 0
DWIDTH 7 0
BBX 7 14 1 -2
BITMAP
06
18
30
60
40
40
C0
80
80
80
80
80
40
30
ENDCHAR

STARTCHAR parenright
ENCODING 41
SWIDTH 419 0
DWIDTH 7 0
BBX 6 14 -1 -2
BITMAP
10
08
04
04
04
04
04
04
0C
08
08
10
20
C0
ENDCHAR

STARTCHAR asterisk
ENCODING 42
SWIDTH 500 0
DWIDTH 8 0
BBX 6 6 2 6
BITMAP
10
10
EC
30
50
D0
ENDCHAR

STARTCHAR plus
ENCODING 43
SWIDTH 833 0
DWIDTH 14 0
BBX 9 11 3 0
BITMAP
0800
0800
0800
0800
0800
FF80
0800
0800
0800
0800
0800
ENDCHAR

STARTCHAR comma
ENCODING 44
SWIDTH 278 0
DWIDTH 4 0
BBX 3 5 -1 -3
BITMAP
60
60
20
40
80
ENDCHAR

STARTCHAR hyphen
ENCODING 45
SWIDTH 319 0
DWIDTH 5 0
BBX 4 1 0 4
BITMAP
F0
ENDCHAR

STARTCHAR period
ENCODING 46
SWIDTH 278 0
DWIDTH 4 0
BBX 2 2 0 0
BITMAP
C0
C0
ENDCHAR

STARTCHAR slash
ENCODING 47
SWIDTH 481 0
DWIDTH 8 0
BBX 11 13 -2 -2
BITMAP
0020
0040
0080
0100
0100
0200
0400
0800
1800
1000
2000
4000
8000
ENDCHAR

STARTCHAR zero
ENCODING 48
SWIDTH 556 0
DWIDTH 9 0
BBX 8 11 1 0
BITMAP
1E
33
61
41
C1
81
83
82
86
CC
78
ENDCHAR

STARTCHAR one
ENCODING 49
SWIDTH 556 0
DWIDTH 9 0
BBX 6 11 1 0
BITMAP
1C
7C
08
08
08
18
18
10
10
30
FC
ENDCHAR

STARTCHAR two
ENCODING 50
SWIDTH 556 0
DWIDTH 9 0
BBX 9 11 -1 0
BITMAP
0F00
1180
3080
0080
0180
0300
0600
0800
1080
6080
FF00
ENDCHAR

STARTCHAR three
ENCODING 51
SWIDTH 556 0
DWIDTH 9 0
BBX 8 11 0 0
BITMAP
0E
31
21
01
06
1C
02
03
C2
C6
78
ENDCHAR

STARTCHAR four
ENCODING 52
SWIDTH 556 0
DWIDTH 9 0
BBX 8 12 0 -1
BITMAP
01
03
07
0A
12
22
42
FF
04
04
04
04
ENDCHAR

STARTCHAR five
ENCODING 53
SWIDTH 556 0
DWIDTH 9 0
BBX 8 11 0 0
BITMAP
1F
20
20
20
3C
06
02
02
82
CC
70
ENDCHAR

STARTCHAR six
ENCODING 54
SWIDTH 556 0
DWIDTH 9 0
BBX 7 12 1 0
BITMAP
06
18
20
40
7C
C6
82
82
82
86
C4
78
ENDCHAR

STARTCHAR seven
ENCODING 55
SWIDTH 556 0
DWIDTH 9 0
BBX 9 12 1 -1
BITMAP
7F80
4100
4200
0600
0400
0800
1800
1000
2000
2000
4000
8000
ENDCHAR

STARTCHAR eight
ENCODING 56
SWIDTH 556 0
DWIDTH 9 0
BBX 8 11 0 0
BITMAP
1E
21
61
61
72
3C
46
83
82
C6
78
ENDCHAR

STARTCHAR nine
ENCODING 57
SWIDTH 556 0
DWIDTH 9 0
BBX 8 11 1 0
BITMAP
1E
63
C1
81
81
C7
7A
06
08
70
80
ENDCHAR

STARTCHAR colon
ENCODING 58
SWIDTH 319 0
DWIDTH 5 0
BBX 3 8 1 0
BITMAP
60
60
00
00
00
00
C0
C0
ENDCHAR

STARTCHAR semicolon
ENCODING 59
SWIDTH 319 0
DWIDTH 5 0
BBX 5 11 -1 -3
BITMAP
18
18
00
00
00
00
30
70
10
20
C0
ENDCHAR

STARTCHAR less
ENCODING 60
SWIDTH 833 0
DWIDTH 14 0
BBX 10 9 2 1
BITMAP
0040
0380
0C00
7000
C000
7000
0E00
0380
0040
ENDCHAR

STARTCHAR equal
ENCODING 61
SWIDTH 833 0
DWIDTH 14 0
BBX 10 4 2 3
BITMAP
FFC0
0000
0000
FFC0
ENDCHAR

STARTCHAR greater
ENCODING 62
SWIDTH 833 0
DWIDTH 14 0
BBX 10 9 2 1
BITMAP
8000
7000
0C00
0380
00C0
0380
0C00
7000
8000
ENDCHAR

STARTCHAR question
ENCODING 63
SWIDTH 486 0
DWIDTH 8 0
BBX 6 11 1 0
BITMAP
70
CC
0C
08
18
60
40
40
00
C0
C0
ENDCHAR

STARTCHAR at
ENCODING 64
SWIDTH 942 0
DWIDTH 16 0
BBX 13 14 2 -2
BITMAP
0FC0
1020
2010
4748
8888
9888
9088
9190
93B0
CDC0
4000
6000
3060
0F80
ENDCHAR

STARTCHAR A
ENCODING 65
SWIDTH 606 0
DWIDTH 10 0
BBX 11 11 -1 0
BITMAP
0100
0300
0580
0580
0880
0880
1F80
3080
20C0
40C0
E1E0
ENDCHAR

STARTCHAR B
ENCODING 66
SWIDTH 588 0
DWIDTH 10 0
BBX 9 11 0 0
BITMAP
3F00
1880
1080
1080
3100
3F00
3180
2080
2180
6300
FE00
ENDCHAR

STARTCHAR C
ENCODING 67
SWIDTH 604 0
DWIDTH 10 0
BBX 9 11 1 0
BITMAP
0F00
3080
6080
4000
8000
8000
8000
8000
8100
4200
3C00
ENDCHAR

STARTCHAR D
ENCODING 68
SWIDTH 671 0
DWIDTH 11 0
BBX 11 11 -1 0
BITMAP
3F80
18C0
1820
1020
1020
3020
3020
3040
20C0
2380
FE00
ENDCHAR

STARTCHAR E
ENCODING 69
SWIDTH 546 0
DWIDTH 9 0
BBX 10 11 0 0
BITMAP
3FC0
1840
1040
1000
1100
3F00
3100
2000
2080
6080
FF80
ENDCHAR

STARTCHAR F
ENCODING 70
SWIDTH 509 0
DWIDTH 8 0
BBX 9 11 0 0
BITMAP
3F80
1080
1080
1000
3200
3E00
2200
2000
2000
6000
F000
ENDCHAR

STARTCHAR G
ENCODING 71
SWIDTH 664 0
DWIDTH 11 0
BBX 10 11 1 0
BITMAP
0FC0
30C0
6080
4000
8000
83C0
8180
8100
C100
6300
3E00
ENDCHAR

STARTCHAR H
ENCODING 72
SWIDTH 712 0
DWIDTH 12 0
BBX 13 11 0 0
BITMAP
3C78
1830
1020
1020
3060
3FE0
3060
2040
2040
60C0
F1E0
ENDCHAR

STARTCHAR I
ENCODING 73
SWIDTH 313 0
DWIDTH 5 0
BBX 6 11 0 0
BITMAP
3C
18
10
10
30
30
30
20
20
60
F0
ENDCHAR

STARTCHAR J
ENCODING 74
SWIDTH 447 0
DWIDTH 8 0
BBX 9 11 -1 0
BITMAP
0F80
0200
0200
0600
0600
0600
0400
0C00
8C00
9800
F000
ENDCHAR

STARTCHAR K
ENCODING 75
SWIDTH 625 0
DWIDTH 10 0
BBX 11 11 0 0
BITMAP
3DE0
1080
1100
1200
3400
3C00
2400
2600
2200
6300
F1C0
ENDCHAR

STARTCHAR L
ENCODING 76
SWIDTH 498 0
DWIDTH 9 0
BBX 8 11 0 0
BITMAP
3C
18
10
10
30
30
20
20
21
61
FF
ENDCHAR

STARTCHAR M
ENCODING 77
SWIDTH 839 0
DWIDTH 14 0
BBX 15 11 0 0
BITMAP
380E
181C
1C18
1C28
2448
2458
2498
2790
2710
4210
F278
ENDCHAR

STARTCHAR N
ENCODING 78
SWIDTH 683 0
DWIDTH 11 0
BBX 12 11 0 0
BITMAP
3870
1820
1820
1C40
2440
2640
2240
2340
4180
4180
E080
ENDCHAR

STARTCHAR O
ENCODING 79
SWIDTH 708 0
DWIDTH 12 0
BBX 10 11 1 0
BITMAP
0F00
3080
6040
4040
C040
8040
8040
80C0
8180
4300
3C00
ENDCHAR

STARTCHAR P
ENCODING 80
SWIDTH 542 0
DWIDTH 9 0
BBX 9 11 0 0
BITMAP
3F00
1980
1080
1080
3080
3300
3E00
2000
2000
6000
F000
ENDCHAR

STARTCHAR Q
ENCODING 81
SWIDTH 708 0
DWIDTH 12 0
BBX 11 14 1 -3
BITMAP
0F00
3080
6040
4040
C040
8040
8040
80C0
C180
4300
3E00
0600
0320
01C0
ENDCHAR

STARTCHAR R
ENCODING 82
SWIDTH 602 0
DWIDTH 10 0
BBX 10 11 0 0
BITMAP
3F00
1980
1080
1080
3100
3E00
3300
2100
2100
6180
F0C0
ENDCHAR

STARTCHAR S
ENCODING 83
SWIDTH 537 0
DWIDTH 9 0
BBX 9 11 0 0
BITMAP
0F00
1080
2080
2000
3000
1E00
0300
0100
4100
C200
7C00
ENDCHAR

STARTCHAR T
ENCODING 84
SWIDTH 565 0
DWIDTH 9 0
BBX 9 11 1 0
BITMAP
FF80
8880
8880
1800
1800
1000
1000
1000
3000
3000
7800
ENDCHAR

STARTCHAR U
ENCODING 85
SWIDTH 664 0
DWIDTH 11 0
BBX 11 11 1 0
BITMAP
F1E0
4040
4080
4080
C080
C080
8100
8100
8100
C200
7C00
ENDCHAR

STARTCHAR V
ENCODING 86
SWIDTH 590 0
DWIDTH 10 0
BBX 10 11 1 0
BITMAP
E1C0
4080
6100
6100
2200
2200
2400
2400
2800
3000
1000
ENDCHAR

STARTCHAR W
ENCODING 87
SWIDTH 898 0
DWIDTH 15 0
BBX 15 11 1 0
BITMAP
F10E
6104
6388
6388
6590
6490
28A0
28A0
30C0
30C0
2080
ENDCHAR

STARTCHAR X
ENCODING 88
SWIDTH 569 0
DWIDTH 10 0
BBX 12 11 -1 0
BITMAP
3C70
0840
0C80
0500
0700
0200
0700
0900
1180
2080
F3C0
ENDCHAR

STARTCHAR Y
ENCODING 89
SWIDTH 563 0
DWIDTH 10 0
BBX 10 11 1 0
BITMAP
F3C0
6180
2100
2200
3400
1800
1000
1000
1000
3000
7800
ENDCHAR

STARTCHAR Z
ENCODING 90
SWIDTH 556 0
DWIDTH 9 0
BBX 10 11 0 0
BITMAP
3FC0
2080
2100
0300
0600
0C00
1800
3000
2100
4100
FF00
ENDCHAR

STARTCHAR bracketleft
ENCODING 91
SWIDTH 421 0
DWIDTH 7 0
BBX 6 14 1 -2
BITMAP
3C
20
20
20
20
60
60
40
40
40
40
C0
80
F0
ENDCHAR

STARTCHAR backslash
ENCODING 92
SWIDTH 481 0
DWIDTH 8 0
BBX 7 13 1 -2
BITMAP
80
40
40
20
20
10
10
10
08
08
04
04
02
ENDCHAR

STARTCHAR bracketright
ENCODING 93
SWIDTH 421 0
DWIDTH 7 0
BBX 7 14 -1 -2
BITMAP
1E
06
06
04
04
04
0C
08
08
08
18
18
10
F0
ENDCHAR

STARTCHAR asciicircum
ENCODING 94
SWIDTH 1000 0
DWIDTH 17 0
BBX 10 5 3 7
BITMAP
0C00
1E00
3300
4080
8040
ENDCHAR

STARTCHAR underscore
ENCODING 95
SWIDTH 500 0
DWIDTH 8 0
BBX 8 1 0 -4
BITMAP
FF
ENDCHAR

STARTCHAR quoteleft
ENCODING 96
SWIDTH 201 0
DWIDTH 3 0
BBX 3 5 1 7
BITMAP
60
40
80
C0
C0
ENDCHAR

STARTCHAR a
ENCODING 97
SWIDTH 525 0
DWIDTH 9 0
BBX 8 8 0 0
BITMAP
1F
63
42
82
86
86
CC
77
ENDCHAR

STARTCHAR b
ENCODING 98
SWIDTH 507 0
DWIDTH 8 0
BBX 7 13 0 0
BITMAP
E0
20
60
60
60
5C
62
42
42
82
84
8C
70
ENDCHAR

STARTCHAR c
ENCODING 99
SWIDTH 394 0
DWIDTH 7 0
BBX 6 8 0 0
BITMAP
1C
6C
40
80
80
80
CC
70
ENDCHAR

STARTCHAR d
ENCODING 100
SWIDTH 523 0
DWIDTH 9 0
BBX 8 13 0 0
BITMAP
07
01
01
03
02
1E
62
42
82
86
86
8C
77
ENDCHAR

STARTCHAR e
ENCODING 101
SWIDTH 424 0
DWIDTH 7 0
BBX 6 8 0 0
BITMAP
18
64
44
98
E0
80
C4
78
ENDCHAR

STARTCHAR f
ENCODING 102
SWIDTH 292 0
DWIDTH 5 0
BBX 9 17 -2 -4
BITMAP
0380
0580
0400
0400
0C00
1F00
0800
0800
0800
0800
1800
1800
1000
1000
1000
A000
C000
ENDCHAR

STARTCHAR g
ENCODING 103
SWIDTH 481 0
DWIDTH 8 0
BBX 8 12 0 -4
BITMAP
18
67
44
4C
30
20
30
5C
84
84
CC
70
ENDCHAR

STARTCHAR h
ENCODING 104
SWIDTH 551 0
DWIDTH 9 0
BBX 8 13 0 0
BITMAP
70
30
20
20
20
2E
32
62
46
44
44
44
C7
ENDCHAR

STARTCHAR i
ENCODING 105
SWIDTH 287 0
DWIDTH 5 0
BBX 4 13 1 0
BITMAP
30
30
00
00
00
E0
60
60
40
C0
C0
C0
F0
ENDCHAR

STARTCHAR j
ENCODING 106
SWIDTH 269 0
DWIDTH 5 0
BBX 7 17 -2 -4
BITMAP
06
06
00
00
00
1C
04
04
0C
0C
08
08
08
18
10
10
E0
ENDCHAR

STARTCHAR k
ENCODING 107
SWIDTH 514 0
DWIDTH 9 0
BBX 8 13 0 0
BITMAP
70
10
30
30
20
23
25
68
78
68
4C
44
C7
ENDCHAR

STARTCHAR l
ENCODING 108
SWIDTH 275 0
DWIDTH 5 0
BBX 4 13 0 0
BITMAP
F0
30
20
20
20
60
60
40
40
C0
C0
C0
F0
ENDCHAR

STARTCHAR m
ENCODING 109
SWIDTH 815 0
DWIDTH 14 0
BBX 13 8 1 0
BITMAP
EE70
73B0
6230
4230
4220
4620
C620
C438
ENDCHAR

STARTCHAR n
ENCODING 110
SWIDTH 556 0
DWIDTH 9 0
BBX 8 8 1 0
BITMAP
EE
72
42
46
44
44
C4
87
ENDCHAR

STARTCHAR o
ENCODING 111
SWIDTH 502 0
DWIDTH 8 0
BBX 7 8 0 0
BITMAP
1C
66
C2
82
82
84
CC
70
ENDCHAR

STARTCHAR p
ENCODING 112
SWIDTH 516 0
DWIDTH 9 0
BBX 9 12 -1 -4
BITMAP
3780
1880
1080
3080
2080
2100
2300
3C00
2000
6000
4000
F000
ENDCHAR

STARTCHAR q
ENCODING 113
SWIDTH 512 0
DWIDTH 8 0
BBX 7 12 0 -4
BITMAP
1E
62
42
82
84
84
8C
74
04
0C
0C
1E
ENDCHAR

STARTCHAR r
ENCODING 114
SWIDTH 398 0
DWIDTH 7 0
BBX 7 8 0 0
BITMAP
EE
36
60
60
40
40
C0
C0
ENDCHAR

STARTCHAR s
ENCODING 115
SWIDTH 370 0
DWIDTH 6 0
BBX 5 8 0 0
BITMAP
38
48
40
60
10
98
90
60
ENDCHAR

STARTCHAR t
ENCODING 116
SWIDTH 333 0
DWIDTH 6 0
BBX 5 10 1 0
BITMAP
20
60
F8
40
40
40
C0
80
C0
F0
ENDCHAR

STARTCHAR u
ENCODING 117
SWIDTH 553 0
DWIDTH 9 0
BBX 7 8 1 0
BITMAP
C2
46
44
44
C4
84
9C
E6
ENDCHAR

STARTCHAR v
ENCODING 118
SWIDTH 454 0
DWIDTH 8 0
BBX 8 8 0 0
BITMAP
E3
23
22
22
34
38
30
30
ENDCHAR

STARTCHAR w
ENCODING 119
SWIDTH 713 0
DWIDTH 12 0
BBX 12 8 0 0
BITMAP
E230
6230
6630
6620
2B40
3340
3380
2300
ENDCHAR

STARTCHAR x
ENCODING 120
SWIDTH 477 0
DWIDTH 8 0
BBX 9 8 -1 0
BITMAP
7180
1280
1C00
0800
0800
1C00
A400
C700
ENDCHAR

STARTCHAR y
ENCODING 121
SWIDTH 475 0
DWIDTH 8 0
BBX 10 12 -2 -4
BITMAP
30C0
1880
0900
0900
0900
0A00
0E00
0400
0800
0800
9000
E000
ENDCHAR

STARTCHAR z
ENCODING 122
SWIDTH 440 0
DWIDTH 8 0
BBX 8 8 0 0
BITMAP
3D
42
64
08
10
22
52
FC
ENDCHAR

STARTCHAR braceleft
ENCODING 123
SWIDTH 486 0
DWIDTH 8 0
BBX 6 14 1 -2
BITMAP
0C
10
10
10
10
30
C0
30
10
10
10
10
10
0C
ENDCHAR

STARTCHAR bar
ENCODING 124
SWIDTH 500 0
DWIDTH 8 0
BBX 1 17 4 -4
BITMAP
80
80
80
80
80
80
80
80
80
80
80
80
80
80
80
80
80
ENDCHAR

STARTCHAR braceright
ENCODING 125
SWIDTH 486 0
DWIDTH 8 0
BBX 6 14 1 -2
BITMAP
C0
20
20
20
20
30
0C
30
20
20
20
20
20
C0
ENDCHAR

STARTCHAR c0126
ENCODING 126
SWIDTH 1000 0
DWIDTH 17 0
BBX 11 2 3 9
BITMAP
3C60
C780
ENDCHAR

STARTCHAR space
ENCODING 160
SWIDTH 278 0
DWIDTH 5 0
BBX 1 1 0 0
BITMAP
00
ENDCHAR

STARTCHAR exclamdown
ENCODING 161
SWIDTH 338 0
DWIDTH 6 0
BBX 4 11 1 0
BITMAP
30
30
00
20
20
60
60
40
C0
C0
C0
ENDCHAR

STARTCHAR cent
ENCODING 162
SWIDTH 556 0
DWIDTH 9 0
BBX 7 13 1 -2
BITMAP
08
08
1E
6A
52
90
90
90
94
E4
7C
20
20
ENDCHAR

STARTCHAR sterling
ENCODING 163
SWIDTH 556 0
DWIDTH 9 0
BBX 10 11 -1 0
BITMAP
0380
04C0
0C00
0800
0800
3F00
1800
1000
1000
2000
FF00
ENDCHAR

STARTCHAR EuroSign
ENCODING 164
SWIDTH 534 0
DWIDTH 9 0
BBX 11 11 0 0
BITMAP
0780
0860
1040
2000
FF00
4000
FE00
4000
4000
4100
3E00
ENDCHAR

STARTCHAR yen
ENCODING 165
SWIDTH 556 0
DWIDTH 9 0
BBX 10 11 0 0
BITMAP
71C0
2080
3100
1200
7380
1C00
1800
FF00
1800
1000
7C00
ENDCHAR

STARTCHAR Scaron
ENCODING 166
SWIDTH 537 0
DWIDTH 9 0
BBX 9 16 0 0
BITMAP
1100
0A00
0600
0000
0000
0F00
1080
2080
2000
3000
1E00
0300
0100
4100
C200
7C00
ENDCHAR

STARTCHAR section
ENCODING 167
SWIDTH 500 0
DWIDTH 8 0
BBX 8 14 0 -2
BITMAP
0F
11
22
30
1C
26
42
42
64
38
0C
84
88
70
ENDCHAR

STARTCHAR scaron
ENCODING 168
SWIDTH 370 0
DWIDTH 6 0
BBX 5 13 0 0
BITMAP
88
50
30
00
00
38
48
40
60
10
98
90
60
ENDCHAR

STARTCHAR copyright
ENCODING 169
SWIDTH 900 0
DWIDTH 15 0
BBX 13 13 1 -1
BITMAP
0F00
10C0
2020
4790
4890
9008
9008
9008
4890
4790
2020
10C0
0F00
ENDCHAR

STARTCHAR ordfeminine
ENCODING 170
SWIDTH 394 0
DWIDTH 7 0
BBX 6 5 0 6
BITMAP
3C
48
88
90
7C
ENDCHAR

STARTCHAR guillemotleft
ENCODING 171
SWIDTH 442 0
DWIDTH 7 0
BBX 6 6 0 1
BITMAP
24
48
90
90
48
48
ENDCHAR

STARTCHAR logicalnot
ENCODING 172
SWIDTH 833 0
DWIDTH 14 0
BBX 10 4 2 3
BITMAP
FFC0
0040
0040
0040
ENDCHAR

STARTCHAR hyphen
ENCODING 173
SWIDTH 319 0
DWIDTH 5 0
BBX 4 1 0 4
BITMAP
F0
ENDCHAR

STARTCHAR registered
ENCODING 174
SWIDTH 900 0
DWIDTH 15 0
BBX 13 13 1 -1
BITMAP
0F00
10C0
2020
5F10
4890
8988
8F08
8988
4890
5CF0
2020
10C0
0F00
ENDCHAR

STARTCHAR macron
ENCODING 175
SWIDTH 500 0
DWIDTH 8 0
BBX 5 1 2 10
BITMAP
F8
ENDCHAR

STARTCHAR degree
ENCODING 176
SWIDTH 329 0
DWIDTH 5 0
BBX 5 5 0 7
BITMAP
70
88
88
88
70
ENDCHAR

STARTCHAR plusminus
ENCODING 177
SWIDTH 833 0
DWIDTH 14 0
BBX 9 10 3 0
BITMAP
0800
0800
0800
FF80
0800
0800
0800
0000
0000
FF80
ENDCHAR

STARTCHAR twosuperior
ENCODING 178
SWIDTH 367 0
DWIDTH 6 0
BBX 5 7 0 4
BITMAP
30
48
08
10
20
48
F0
ENDCHAR

STARTCHAR threesuperior
ENCODING 179
SWIDTH 367 0
DWIDTH 6 0
BBX 6 7 0 4
BITMAP
38
44
0C
30
0C
88
70
ENDCHAR

STARTCHAR Zcaron
ENCODING 180
SWIDTH 556 0
DWIDTH 9 0
BBX 10 16 0 0
BITMAP
1100
0A00
0600
0000
0000
3FC0
2080
2100
0300
0600
0C00
1800
3000
2100
4100
FF00
ENDCHAR

STARTCHAR mu
ENCODING 181
SWIDTH 548 0
DWIDTH 9 0
BBX 10 10 -1 -3
BITMAP
3100
2100
2300
2200
6240
6640
5980
C000
C000
8000
ENDCHAR

STARTCHAR paragraph
ENCODING 182
SWIDTH 484 0
DWIDTH 8 0
BBX 8 13 0 -2
BITMAP
3F
7A
FA
FA
FA
7A
3A
02
02
02
02
02
02
ENDCHAR

STARTCHAR periodcentered
ENCODING 183
SWIDTH 278 0
DWIDTH 4 0
BBX 2 2 1 5
BITMAP
C0
C0
ENDCHAR

STARTCHAR zcaron
ENCODING 184
SWIDTH 440 0
DWIDTH 8 0
BBX 8 13 0 0
BITMAP
22
14
0C
00
00
3D
42
64
08
10
22
52
FC
ENDCHAR

STARTCHAR onesuperior
ENCODING 185
SWIDTH 367 0
DWIDTH 7 0
BBX 4 7 1 4
BITMAP
30
70
20
20
20
20
F0
ENDCHAR

STARTCHAR ordmasculine
ENCODING 186
SWIDTH 377 0
DWIDTH 6 0
BBX 5 5 0 6
BITMAP
30
48
88
90
60
ENDCHAR

STARTCHAR guillemotright
ENCODING 187
SWIDTH 442 0
DWIDTH 7 0
BBX 6 6 0 1
BITMAP
48
48
24
24
48
90
ENDCHAR

STARTCHAR Ligature_OE
ENCODING 188
SWIDTH 950 0
DWIDTH 16 0
BBX 15 11 1 0
BITMAP
07FE
1842
2042
4088
4088
80F8
8090
8110
8104
4308
3FF8
ENDCHAR

STARTCHAR Ligature_oe
ENCODING 189
SWIDTH 653 0
DWIDTH 11 0
BBX 11 8 0 0
BITMAP
1CE0
2320
4220
C240
8780
8600
8A40
7380
ENDCHAR

STARTCHAR Ydiaeresis
ENCODING 190
SWIDTH 563 0
DWIDTH 10 0
BBX 10 15 1 0
BITMAP
1B00
1B00
0000
0000
F3C0
6180
2100
2200
3400
1800
1000
1000
1000
3000
7800
ENDCHAR

STARTCHAR questiondown
ENCODING 191
SWIDTH 486 0
DWIDTH 8 0
BBX 6 11 0 0
BITMAP
0C
0C
00
08
08
10
60
C0
C0
CC
78
ENDCHAR

STARTCHAR Agrave
ENCODING 192
SWIDTH 606 0
DWIDTH 10 0
BBX 11 16 -1 0
BITMAP
0600
0200
0100
0000
0000
0100
0300
0580
0580
0880
0880
1F80
3080
20C0
40C0
E1E0
ENDCHAR

STARTCHAR Aacute
ENCODING 193
SWIDTH 606 0
DWIDTH 10 0
BBX 11 16 -1 0
BITMAP
00C0
0100
0200
0000
0000
0100
0300
0580
0580
0880
0880
1F80
3080
20C0
40C0
E1E0
ENDCHAR

STARTCHAR Acircumflex
ENCODING 194
SWIDTH 606 0
DWIDTH 10 0
BBX 11 16 -1 0
BITMAP
0300
0500
0880
0000
0000
0100
0300
0580
0580
0880
0880
1F80
3080
20C0
40C0
E1E0
ENDCHAR

STARTCHAR Atilde
ENCODING 195
SWIDTH 606 0
DWIDTH 10 0
BBX 11 15 -1 0
BITMAP
0340
0580
0000
0000
0100
0300
0580
0580
0880
0880
1F80
3080
20C0
40C0
E1E0
ENDCHAR

STARTCHAR Adieresis
ENCODING 196
SWIDTH 606 0
DWIDTH 10 0
BBX 11 15 -1 0
BITMAP
0D80
0D80
0000
0000
0100
0300
0580
0580
0880
0880
1F80
3080
20C0
40C0
E1E0
ENDCHAR

STARTCHAR Aring
ENCODING 197
SWIDTH 606 0
DWIDTH 10 0
BBX 11 16 -1 0
BITMAP
0180
0240
0240
0180
0000
0100
0300
0580
0580
0880
0880
1F80
3080
20C0
40C0
E1E0
ENDCHAR

STARTCHAR AE
ENCODING 198
SWIDTH 873 0
DWIDTH 14 0
BBX 16 11 -2 0
BITMAP
01FF
00A1
0161
0260
0244
047C
0FC4
1040
20C2
4082
E1FE
ENDCHAR

STARTCHAR Ccedilla
ENCODING 199
SWIDTH 604 0
DWIDTH 10 0
BBX 9 15 1 -4
BITMAP
0F00
3080
6080
4000
8000
8000
8000
8000
8100
4200
3C00
1000
1800
0800
3000
ENDCHAR

STARTCHAR Egrave
ENCODING 200
SWIDTH 546 0
DWIDTH 9 0
BBX 10 16 0 0
BITMAP
0C00
0400
0200
0000
0000
3FC0
1840
1040
1000
1100
3F00
3100
2000
2080
6080
FF80
ENDCHAR

STARTCHAR Eacute
ENCODING 201
SWIDTH 546 0
DWIDTH 9 0
BBX 10 16 0 0
BITMAP
0180
0200
0400
0000
0000
3FC0
1840
1040
1000
1100
3F00
3100
2000
2080
6080
FF80
ENDCHAR

STARTCHAR Ecircumflex
ENCODING 202
SWIDTH 546 0
DWIDTH 9 0
BBX 10 16 0 0
BITMAP
0600
0A00
1100
0000
0000
3FC0
1840
1040
1000
1100
3F00
3100
2000
2080
6080
FF80
ENDCHAR

STARTCHAR Edieresis
ENCODING 203
SWIDTH 546 0
DWIDTH 9 0
BBX 10 15 0 0
BITMAP
1B00
1B00
0000
0000
3FC0
1840
1040
1000
1100
3F00
3100
2000
2080
6080
FF80
ENDCHAR

STARTCHAR Igrave
ENCODING 204
SWIDTH 313 0
DWIDTH 5 0
BBX 6 16 0 0
BITMAP
30
10
08
00
00
3C
18
10
10
30
30
30
20
20
60
F0
ENDCHAR

STARTCHAR Iacute
ENCODING 205
SWIDTH 313 0
DWIDTH 5 0
BBX 7 16 0 0
BITMAP
06
08
10
00
00
3C
18
10
10
30
30
30
20
20
60
F0
ENDCHAR

STARTCHAR Icircumflex
ENCODING 206
SWIDTH 313 0
DWIDTH 5 0
BBX 6 16 0 0
BITMAP
18
28
44
00
00
3C
18
10
10
30
30
30
20
20
60
F0
ENDCHAR

STARTCHAR Idieresis
ENCODING 207
SWIDTH 313 0
DWIDTH 5 0
BBX 6 15 0 0
BITMAP
6C
6C
00
00
3C
18
10
10
30
30
30
20
20
60
F0
ENDCHAR

STARTCHAR Eth
ENCODING 208
SWIDTH 671 0
DWIDTH 12 0
BBX 11 11 0 0
BITMAP
3F80
18C0
1820
1020
1020
7E20
3020
3060
20C0
2180
FE00
ENDCHAR

STARTCHAR Ntilde
ENCODING 209
SWIDTH 683 0
DWIDTH 11 0
BBX 12 15 0 0
BITMAP
0340
0580
0000
0000
3870
1820
1820
1C40
2440
2640
2240
2340
4180
4180
E080
ENDCHAR

STARTCHAR Ograve
ENCODING 210
SWIDTH 708 0
DWIDTH 12 0
BBX 10 16 1 0
BITMAP
0C00
0400
0200
0000
0000
0F00
3080
6040
4040
C040
8040
8040
80C0
8180
4300
3C00
ENDCHAR

STARTCHAR Oacute
ENCODING 211
SWIDTH 708 0
DWIDTH 12 0
BBX 10 16 1 0
BITMAP
0180
0200
0400
0000
0000
0F00
3080
6040
4040
C040
8040
8040
80C0
8180
4300
3C00
ENDCHAR

STARTCHAR Ocircumflex
ENCODING 212
SWIDTH 708 0
DWIDTH 12 0
BBX 10 16 1 0
BITMAP
0600
0A00
1100
0000
0000
0F00
3080
6040
4040
C040
8040
8040
80C0
8180
4300
3C00
ENDCHAR

STARTCHAR Otilde
ENCODING 213
SWIDTH 708 0
DWIDTH 12 0
BBX 10 15 1 0
BITMAP
0680
0B00
0000
0000
0F00
3080
6040
4040
C040
8040
8040
80C0
8180
4300
3C00
ENDCHAR

STARTCHAR Odieresis
ENCODING 214
SWIDTH 708 0
DWIDTH 12 0
BBX 10 15 1 0
BITMAP
1B00
1B00
0000
0000
0F00
3080
6040
4040
C040
8040
8040
80C0
8180
4300
3C00
ENDCHAR

STARTCHAR multiply
ENCODING 215
SWIDTH 833 0
DWIDTH 14 0
BBX 9 9 3 1
BITMAP
8080
4100
2200
1400
0800
1400
2200
4100
8080
ENDCHAR

STARTCHAR Oslash
ENCODING 216
SWIDTH 708 0
DWIDTH 12 0
BBX 10 14 1 -1
BITMAP
0000
0080
0F80
3180
6140
4240
8440
8840
9040
9080
A180
6300
7C00
8000
ENDCHAR

STARTCHAR Ugrave
ENCODING 217
SWIDTH 664 0
DWIDTH 11 0
BBX 11 16 1 0
BITMAP
1800
0800
0400
0000
0000
F1E0
4040
4080
4080
C080
C080
8100
8100
8100
C200
7C00
ENDCHAR

STARTCHAR Uacute
ENCODING 218
SWIDTH 664 0
DWIDTH 11 0
BBX 11 16 1 0
BITMAP
0300
0400
0800
0000
0000
F1E0
4040
4080
4080
C080
C080
8100
8100
8100
C200
7C00
ENDCHAR

STARTCHAR Ucircumflex
ENCODING 219
SWIDTH 664 0
DWIDTH 11 0
BBX 11 16 1 0
BITMAP
0C00
1400
2200
0000
0000
F1E0
4040
4080
4080
C080
C080
8100
8100
8100
C200
7C00
ENDCHAR

STARTCHAR Udieresis
ENCODING 220
SWIDTH 664 0
DWIDTH 11 0
BBX 11 15 1 0
BITMAP
3600
3600
0000
0000
F1E0
4040
4080
4080
C080
C080
8100
8100
8100
C200
7C00
ENDCHAR

STARTCHAR Yacute
ENCODING 221
SWIDTH 563 0
DWIDTH 10 0
BBX 10 16 1 0
BITMAP
0300
0400
0800
0000
0000
F3C0
6180
2100
2200
3400
1800
1000
1000
1000
3000
7800
ENDCHAR

STARTCHAR Thorn
ENCODING 222
SWIDTH 532 0
DWIDTH 8 0
BBX 9 11 -1 0
BITMAP
3C00
1800
1F00
1180
1080
3080
3080
2300
3E00
6000
F000
ENDCHAR

STARTCHAR germandbls
ENCODING 223
SWIDTH 574 0
DWIDTH 10 0
BBX 11 17 -2 -4
BITMAP
01C0
0220
0420
0420
0C60
0880
0900
0980
08C0
0860
1A20
1A40
1180
1000
1000
A000
C000
ENDCHAR

STARTCHAR agrave
ENCODING 224
SWIDTH 525 0
DWIDTH 9 0
BBX 8 13 0 0
BITMAP
18
08
04
00
00
1F
63
42
82
86
86
CC
77
ENDCHAR

STARTCHAR aacute
ENCODING 225
SWIDTH 525 0
DWIDTH 9 0
BBX 8 13 0 0
BITMAP
03
04
08
00
00
1F
63
42
82
86
86
CC
77
ENDCHAR

STARTCHAR acircumflex
ENCODING 226
SWIDTH 525 0
DWIDTH 9 0
BBX 8 13 0 0
BITMAP
0C
14
22
00
00
1F
63
42
82
86
86
CC
77
ENDCHAR

STARTCHAR atilde
ENCODING 227
SWIDTH 525 0
DWIDTH 9 0
BBX 8 12 0 0
BITMAP
0D
16
00
00
1F
63
42
82
86
86
CC
77
ENDCHAR

STARTCHAR adieresis
ENCODING 228
SWIDTH 525 0
DWIDTH 9 0
BBX 8 12 0 0
BITMAP
36
36
00
00
1F
63
42
82
86
86
CC
77
ENDCHAR

STARTCHAR aring
ENCODING 229
SWIDTH 525 0
DWIDTH 9 0
BBX 8 13 0 0
BITMAP
0C
12
12
0C
00
1F
63
42
82
86
86
CC
77
ENDCHAR

STARTCHAR ae
ENCODING 230
SWIDTH 671 0
DWIDTH 11 0
BBX 10 8 0 0
BITMAP
3980
4640
4440
0C80
3F00
C800
8C40
F780
ENDCHAR

STARTCHAR ccedilla
ENCODING 231
SWIDTH 394 0
DWIDTH 7 0
BBX 6 12 0 -4
BITMAP
1C
6C
40
80
80
80
CC
70
40
60
20
C0
ENDCHAR

STARTCHAR egrave
ENCODING 232
SWIDTH 424 0
DWIDTH 7 0
BBX 6 13 0 0
BITMAP
18
08
04
00
00
18
64
44
98
E0
80
C4
78
ENDCHAR

STARTCHAR eacute
ENCODING 233
SWIDTH 424 0
DWIDTH 7 0
BBX 8 13 0 0
BITMAP
03
04
08
00
00
18
64
44
98
E0
80
C4
78
ENDCHAR

STARTCHAR ecircumflex
ENCODING 234
SWIDTH 424 0
DWIDTH 7 0
BBX 7 13 0 0
BITMAP
0C
14
22
00
00
18
64
44
98
E0
80
C4
78
ENDCHAR

STARTCHAR edieresis
ENCODING 235
SWIDTH 424 0
DWIDTH 7 0
BBX 7 12 0 0
BITMAP
36
36
00
00
18
64
44
98
E0
80
C4
78
ENDCHAR

STARTCHAR igrave
ENCODING 236
SWIDTH 287 0
DWIDTH 5 0
BBX 4 13 1 0
BITMAP
C0
40
20
00
00
E0
60
40
40
C0
C0
C0
F0
ENDCHAR

STARTCHAR iacute
ENCODING 237
SWIDTH 287 0
DWIDTH 5 0
BBX 5 13 1 0
BITMAP
18
20
40
00
00
E0
60
40
40
C0
C0
C0
F0
ENDCHAR

STARTCHAR icircumflex
ENCODING 238
SWIDTH 287 0
DWIDTH 5 0
BBX 5 13 0 0
BITMAP
30
50
88
00
00
70
30
20
20
60
60
60
78
ENDCHAR

STARTCHAR idieresis
ENCODING 239
SWIDTH 287 0
DWIDTH 5 0
BBX 5 12 0 0
BITMAP
D8
D8
00
00
70
30
20
20
60
60
60
78
ENDCHAR

STARTCHAR eth
ENCODING 240
SWIDTH 500 0
DWIDTH 8 0
BBX 7 13 0 0
BITMAP
38
0A
0C
74
04
1E
62
42
82
82
86
CC
70
ENDCHAR

STARTCHAR ntilde
ENCODING 241
SWIDTH 556 0
DWIDTH 9 0
BBX 8 12 1 0
BITMAP
1A
2C
00
00
EE
72
42
46
44
44
C4
87
ENDCHAR

STARTCHAR ograve
ENCODING 242
SWIDTH 502 0
DWIDTH 8 0
BBX 7 13 0 0
BITMAP
18
08
04
00
00
1C
66
C2
82
82
84
CC
70
ENDCHAR

STARTCHAR oacute
ENCODING 243
SWIDTH 502 0
DWIDTH 8 0
BBX 8 13 0 0
BITMAP
03
04
08
00
00
1C
66
C2
82
82
84
CC
70
ENDCHAR

STARTCHAR ocircumflex
ENCODING 244
SWIDTH 502 0
DWIDTH 8 0
BBX 7 13 0 0
BITMAP
0C
14
22
00
00
1C
66
C2
82
82
84
CC
70
ENDCHAR

STARTCHAR otilde
ENCODING 245
SWIDTH 502 0
DWIDTH 8 0
BBX 8 12 0 0
BITMAP
0D
16
00
00
1C
66
C2
82
82
84
CC
70
ENDCHAR

STARTCHAR odieresis
ENCODING 246
SWIDTH 502 0
DWIDTH 8 0
BBX 7 12 0 0
BITMAP
36
36
00
00
1C
66
C2
82
82
84
CC
70
ENDCHAR

STARTCHAR divide
ENCODING 247
SWIDTH 833 0
DWIDTH 14 0
BBX 10 9 2 1
BITMAP
0C00
0C00
0000
0000
FFC0
0000
0000
0C00
0C00
ENDCHAR

STARTCHAR oslash
ENCODING 248
SWIDTH 502 0
DWIDTH 8 0
BBX 7 10 0 -1
BITMAP
02
1C
66
4A
92
92
A4
CC
70
80
ENDCHAR

STARTCHAR ugrave
ENCODING 249
SWIDTH 553 0
DWIDTH 9 0
BBX 7 13 1 0
BITMAP
30
10
08
00
00
C2
46
44
44
C4
84
9C
E6
ENDCHAR

STARTCHAR uacute
ENCODING 250
SWIDTH 553 0
DWIDTH 9 0
BBX 7 13 1 0
BITMAP
06
08
10
00
00
C2
46
44
44
C4
84
9C
E6
ENDCHAR

STARTCHAR ucircumflex
ENCODING 251
SWIDTH 553 0
DWIDTH 9 0
BBX 7 13 1 0
BITMAP
18
28
44
00
00
C2
46
44
44
C4
84
9C
E6
ENDCHAR

STARTCHAR udieresis
ENCODING 252
SWIDTH 553 0
DWIDTH 9 0
BBX 7 12 1 0
BITMAP
6C
6C
00
00
C2
46
44
44
C4
84
9C
E6
ENDCHAR

STARTCHAR yacute
ENCODING 253
SWIDTH 475 0
DWIDTH 8 0
BBX 10 17 -2 -4
BITMAP
00C0
0100
0200
0000
0000
30C0
1880
0900
0900
0900
0A00
0E00
0400
0800
0800
9000
E000
ENDCHAR

STARTCHAR thorn
ENCODING 254
SWIDTH 516 0
DWIDTH 9 0
BBX 9 17 -1 -4
BITMAP
3800
0800
1800
1800
1800
1700
1980
1080
3080
2080
2100
2300
3C00
6000
6000
4000
F000
ENDCHAR

STARTCHAR ydieresis
ENCODING 255
SWIDTH 475 0
DWIDTH 8 0
BBX 10 16 -2 -4
BITMAP
0D80
0D80
0000
0000
30C0
1880
0900
0900
0900
0A00
0E00
0400
0800
0800
9000
E000
ENDCHAR
ENDFONT
